<svg width="137" height="72" viewBox="0 0 137 72" fill="none" xmlns="http://www.w3.org/2000/svg">
<path d="M84.2001 24.4669C88.959 26.2062 93.255 27.7409 97.5228 29.3324C104.212 31.8276 110.868 34.4195 117.591 36.8181C118.585 37.1705 120.064 37.0398 120.995 36.5396C125.799 33.9534 130.53 31.2251 135.199 28.4059C136.017 27.9114 136.926 26.7348 136.937 25.8595C137.05 17.5269 136.983 9.19421 136.949 0.861577C136.949 0.702427 136.774 0.543277 136.48 0.0544593C134.194 1.11735 131.84 2.16888 129.52 3.29998C119.042 8.40983 119.07 8.32457 107.729 5.32914C100.385 3.39092 92.9502 1.76532 85.555 0.00898786C85.3912 -0.0307996 85.1993 0.0658271 84.4429 0.213609C84.4429 1.82784 84.33 3.57849 84.4711 5.30641C84.6574 7.55724 83.7654 8.21658 81.5638 8.19953C69.2573 8.11427 56.9508 8.15974 44.6443 8.17111C43.8314 8.17111 43.0185 8.25068 42.1322 8.67698C55.9516 13.855 69.7654 19.0274 83.5848 24.2055C83.6187 24.4726 83.6582 24.7341 83.692 25.0012C80.7057 26.4563 77.7251 27.9228 74.7331 29.3608C69.8218 31.7196 64.8653 33.9932 59.9992 36.4486C57.9443 37.4831 56.2508 37.3638 54.2016 36.2895C36.7015 27.1384 19.145 18.0952 1.59975 9.02938C1.27798 8.86455 0.927972 8.75655 0.256195 8.49509C0.171517 9.56935 0.0473261 10.456 0.0473261 11.3371C0.0303905 16.8277 0.137648 22.3241 0.00216359 27.8091C-0.0486431 29.8837 0.792487 31.1853 2.32798 32.3107C12.4159 39.7226 22.5095 47.1458 32.5975 54.569C39.9249 59.9687 47.2919 65.3173 54.5403 70.8193C56.375 72.2119 57.7863 72.4108 59.8242 71.2115C67.1291 66.9315 74.5243 62.7993 81.9477 58.724C83.6582 57.7861 84.2679 56.6834 84.2453 54.7282C84.1437 45.8271 84.2058 36.9261 84.2058 28.0251C84.2058 27.019 84.2001 26.0073 84.2001 24.4669ZM62.8387 64.9024C60.5637 59.0934 62.5395 54.785 67.5468 54.6315C68.0944 63.1631 68.6194 63.1745 62.8387 64.9024ZM78.3461 48.5554C79.5428 55.8081 78.2501 58.5136 73.6097 58.7296C72.2775 51.6702 73.0396 49.9707 78.3461 48.5554ZM46.7951 54.3473C51.4806 54.9271 52.9258 58.5364 50.6282 63.9247C46.2306 62.5322 45.2257 60.0199 46.7951 54.3473ZM36.5265 48.3735C41.6636 48.8169 41.9515 51.9658 40.241 56.547C36.0918 54.9271 35.6854 54.029 36.5265 48.3735ZM26.6644 42.1269C31.1241 43.8264 31.7902 45.2587 30.187 49.425C25.8571 47.4243 25.1345 45.992 26.6644 42.1269ZM16.2434 36.335C19.6587 36.6703 22.1708 38.8643 20.0764 42.1098C15.9442 40.2398 15.4417 39.4782 16.2434 36.335ZM9.93769 35.147C8.04656 33.4873 5.08847 33.1633 6.05945 29.4915C8.36268 30.8216 11.2869 31.0944 9.93769 35.147Z" fill="#DD003F"/>
</svg>
